<?xml version="1.0"?>
<svg viewBox="0 0 200 200" xmlns="http://www.w3.org/2000/svg">
	 <defs>
		<style><![CDATA[
			.sprite { display: none; }
			.sprite:target { display: inline; }
		]]>
		</style>
	</defs>

	<g class="sprite" id="green">
		<path fill="#A1DB3B" d="M82.092,6.881c2.309,20.742,2.244,41.861,1.81,62.699c-0.409,19.645-0.906,40.372-6.138,59.449
			c-1.234,4.498-3.192,9.603-7.082,12.479c-5.972,4.415-11.982-0.48-15.186-5.58c-5.608-8.928-5.985-23.57,0.168-32.18
			c4.365-6.107,14.846-16.122,23.184-14.155c1.206,0.284,1.46,0.578,2.301,2.1c0.529,0.957,1.092,3.575,1.219,5.205
			c0.951,12.178-3.797,25.25-9.087,35.987c-3.987,8.094-11.768,21.862-21.379,22.564c-4.432,0.324-8.189-3.396-10.82-7.258
			c-4.614-6.77-6.398-13.906-6.034-22.043c0.712-15.883,9.871-36.665,26.519-41.175c9.133-2.475,14.75,3.015,21.564,8.088
			c7.209,5.367,16.405,5.332,22.785-1.229c2.586-2.659,4.285-6.148,6.134-9.319c2.453-4.206,5.665-7.306,10.048-9.451
			c8.871-4.34,20.725-1.987,29.92-0.178c5.642,1.109,8.084-7.36,2.394-8.679c-15.468-3.583-35.804-3.799-48.374,7.354
			c-6.728,5.97-7.859,15.188-6.278,23.566c1.714,9.086,8.284,16.439,15.097,22.229c12.455,10.58,33.297,20.287,31.435,39.656
			c-1.446,15.035-21.175,22.286-33.46,25.008c-11.335,2.51-25.799,3.226-36.016-3.248c-1.514,2.59-3.028,5.181-4.542,7.771
			c13.657,7.165,30.429,8.106,45.451,5.969c14.094-2.005,30.168-7.602,37.342-20.909c8.99-16.674-2.834-35.314-14.008-47.428
			c-7.785-8.438-16.776-15.863-23.182-25.489c-4.49-6.751-8.434-16.368-2.613-23.505c9.711-11.908,32.66-13.354,45.973-7.965
			c5.383,2.179,7.699-6.53,2.393-8.679c-14.777-5.982-35.001-3.583-48.361,4.865c-6.787,4.292-11.203,10.809-11.949,18.835
			c-0.928,9.987,5.546,19.864,11.418,27.288c11.904,15.052,34.506,28.453,34.422,49.934c-0.059,14.734-17.092,21.136-29.029,23.577
			c-13.794,2.821-30.609,2.401-43.311-4.263c-5.143-2.698-9.45,4.66-4.542,7.771c12.916,8.185,30.686,7.049,44.924,3.705
			c14.878-3.492,30.545-11.627,36.559-26.459c7.115-17.552-6.903-33.138-19.704-43c-7.354-5.665-15.662-10.782-21.238-18.372
			c-4.696-6.393-7.293-16.571-1.664-23.213c8.893-10.489,28.943-9.082,40.871-6.318c0.799-2.893,1.596-5.786,2.394-8.679
			c-10.944-2.153-22.501-3.807-33.356-0.335c-10.871,3.477-14.867,12.191-20.855,20.834c-3.375,4.872-8.343,3.463-12.524,0.585
			c-4.745-3.265-8.433-7.208-14.062-9.036c-8.03-2.607-17.517,0.056-24.322,4.503c-14.891,9.731-22.519,29.259-23.288,46.42
			c-0.615,13.707,6.12,30.653,19.525,36.259c10.958,4.582,21.591-5.166,27.637-13.149c8.16-10.774,13.65-23.958,16.585-37.103
			c1.958-8.766,4.259-23.244-3.894-29.83c-13.811-11.157-36.087,9.182-41.168,21.559c-6.084,14.821-0.816,45.854,19.301,47.203
			c20.39,1.366,23.48-24.068,25.811-38.775c2.799-17.664,3.092-35.81,3.246-53.655c0.151-17.568-0.01-35.323-1.955-52.803
			C90.458,1.18,81.451,1.118,82.092,6.881L82.092,6.881z"/>
	</g>
	<g class="sprite" id="yellow">
		<path fill="#D8CC3D" d="M82.092,6.881c2.309,20.742,2.244,41.861,1.81,62.699c-0.409,19.645-0.906,40.372-6.138,59.449
			c-1.234,4.5-3.192,9.603-7.082,12.479c-5.972,4.415-11.983-0.48-15.186-5.58c-5.608-8.928-5.985-23.57,0.168-32.18
			c4.365-6.107,14.846-16.122,23.184-14.155c1.206,0.284,1.46,0.578,2.301,2.1c0.529,0.957,1.092,3.575,1.219,5.205
			c0.95,12.178-3.797,25.25-9.087,35.987c-3.987,8.092-11.768,21.862-21.379,22.564c-4.432,0.324-8.188-3.396-10.819-7.258
			c-4.614-6.77-6.398-13.906-6.034-22.043c0.712-15.883,9.871-36.665,26.519-41.175c9.133-2.475,14.75,3.015,21.564,8.088
			c7.209,5.367,16.405,5.332,22.785-1.229c2.586-2.659,4.285-6.148,6.134-9.319c2.453-4.206,5.665-7.306,10.049-9.451
			c8.871-4.34,20.724-1.987,29.92-0.178c5.641,1.109,8.084-7.36,2.393-8.679c-15.469-3.583-35.803-3.799-48.374,7.354
			c-6.728,5.97-7.859,15.188-6.278,23.567c1.715,9.085,8.284,16.438,15.098,22.228c12.453,10.58,33.297,20.287,31.434,39.656
			c-1.445,15.035-21.175,22.286-33.46,25.008c-11.335,2.51-25.799,3.226-36.016-3.248c-1.514,2.59-3.028,5.181-4.542,7.771
			c13.656,7.165,30.428,8.106,45.45,5.969c14.094-2.005,30.168-7.602,37.344-20.909c8.988-16.674-2.834-35.314-14.01-47.428
			c-7.785-8.438-16.775-15.863-23.181-25.489c-4.491-6.751-8.433-16.368-2.612-23.505c9.711-11.908,32.659-13.354,45.971-7.965
			c5.384,2.179,7.701-6.53,2.394-8.679c-14.778-5.982-35.001-3.583-48.362,4.865c-6.787,4.292-11.201,10.809-11.947,18.835
			c-0.928,9.987,5.545,19.864,11.416,27.288c11.906,15.052,34.507,28.453,34.423,49.934c-0.058,14.734-17.093,21.136-29.029,23.577
			c-13.794,2.821-30.609,2.401-43.311-4.263c-5.143-2.698-9.45,4.66-4.542,7.771c12.916,8.185,30.685,7.048,44.923,3.705
			c14.878-3.492,30.545-11.627,36.559-26.459c7.116-17.552-6.903-33.138-19.705-43c-7.353-5.665-15.661-10.782-21.237-18.372
			c-4.696-6.393-7.293-16.571-1.664-23.213c8.893-10.489,28.942-9.082,40.871-6.318c0.799-2.893,1.596-5.786,2.394-8.679
			c-10.944-2.153-22.501-3.807-33.356-0.335c-10.871,3.477-14.867,12.191-20.855,20.834c-3.375,4.872-8.343,3.463-12.524,0.586
			c-4.745-3.265-8.433-7.208-14.062-9.036c-8.03-2.607-17.517,0.056-24.322,4.503c-14.891,9.731-22.519,29.258-23.289,46.42
			c-0.615,13.707,6.12,30.653,19.525,36.26c10.958,4.58,21.591-5.168,27.637-13.15c8.16-10.774,13.65-23.958,16.585-37.104
			c1.958-8.765,4.259-23.243-3.894-29.829c-13.811-11.157-36.087,9.182-41.168,21.559c-6.084,14.82-0.816,45.854,19.301,47.203
			c20.39,1.365,23.48-24.068,25.811-38.775c2.799-17.664,3.093-35.81,3.246-53.655c0.151-17.568-0.01-35.323-1.955-52.803
			C90.458,1.18,81.451,1.118,82.092,6.881L82.092,6.881z"/>
	</g>
	<g class="sprite" id="red">
		<path fill="#D35440" d="M82.092,6.881c2.309,20.742,2.244,41.861,1.81,62.699c-0.409,19.645-0.906,40.372-6.138,59.449
			c-1.234,4.5-3.192,9.603-7.082,12.479c-5.972,4.415-11.983-0.48-15.186-5.58c-5.608-8.928-5.985-23.57,0.168-32.18
			c4.365-6.107,14.846-16.122,23.184-14.155c1.206,0.284,1.46,0.578,2.301,2.1c0.529,0.957,1.092,3.575,1.219,5.205
			c0.95,12.178-3.797,25.25-9.087,35.987c-3.987,8.092-11.768,21.862-21.379,22.564c-4.432,0.324-8.188-3.396-10.819-7.258
			c-4.614-6.77-6.398-13.906-6.034-22.043c0.712-15.883,9.871-36.665,26.519-41.175c9.133-2.475,14.75,3.015,21.564,8.088
			c7.209,5.367,16.405,5.332,22.785-1.229c2.586-2.659,4.285-6.148,6.134-9.319c2.453-4.206,5.665-7.306,10.049-9.451
			c8.871-4.34,20.724-1.987,29.92-0.178c5.641,1.109,8.084-7.36,2.393-8.679c-15.469-3.583-35.803-3.799-48.374,7.354
			c-6.728,5.97-7.859,15.188-6.278,23.567c1.715,9.085,8.284,16.438,15.098,22.228c12.453,10.58,33.297,20.287,31.434,39.656
			c-1.445,15.035-21.175,22.286-33.46,25.008c-11.335,2.51-25.799,3.226-36.016-3.248c-1.514,2.59-3.028,5.181-4.542,7.771
			c13.656,7.165,30.428,8.106,45.45,5.969c14.094-2.005,30.168-7.602,37.344-20.909c8.988-16.674-2.834-35.314-14.01-47.428
			c-7.785-8.438-16.775-15.863-23.181-25.489c-4.491-6.751-8.433-16.368-2.612-23.505c9.711-11.908,32.659-13.354,45.971-7.965
			c5.384,2.179,7.701-6.53,2.394-8.679c-14.778-5.982-35.001-3.583-48.362,4.865c-6.787,4.292-11.201,10.809-11.947,18.835
			c-0.928,9.987,5.545,19.864,11.416,27.288c11.906,15.052,34.507,28.453,34.423,49.934c-0.058,14.734-17.093,21.136-29.029,23.577
			c-13.794,2.821-30.609,2.401-43.311-4.263c-5.143-2.698-9.45,4.66-4.542,7.771c12.916,8.185,30.685,7.048,44.923,3.705
			c14.878-3.492,30.545-11.627,36.559-26.459c7.116-17.552-6.903-33.138-19.705-43c-7.353-5.665-15.661-10.782-21.237-18.372
			c-4.696-6.393-7.293-16.571-1.664-23.213c8.893-10.489,28.942-9.082,40.871-6.318c0.799-2.893,1.596-5.786,2.394-8.679
			c-10.944-2.153-22.501-3.807-33.356-0.335c-10.871,3.477-14.867,12.191-20.855,20.834c-3.375,4.872-8.343,3.463-12.524,0.586
			c-4.745-3.265-8.433-7.208-14.062-9.036c-8.03-2.607-17.517,0.056-24.322,4.503c-14.891,9.731-22.519,29.258-23.289,46.42
			c-0.615,13.707,6.12,30.653,19.525,36.26c10.958,4.58,21.591-5.168,27.637-13.15c8.16-10.774,13.65-23.958,16.585-37.104
			c1.958-8.765,4.259-23.243-3.894-29.829c-13.811-11.157-36.087,9.182-41.168,21.559c-6.084,14.82-0.816,45.854,19.301,47.203
			c20.39,1.365,23.48-24.068,25.811-38.775c2.799-17.664,3.093-35.81,3.246-53.655c0.151-17.568-0.01-35.323-1.955-52.803
			C90.458,1.18,81.451,1.118,82.092,6.881L82.092,6.881z"/>
	</g>
</svg>
