<?xml version="1.0" encoding="utf-8"?>
<!-- Generator: Adobe Illustrator 16.0.0, SVG Export Plug-In . SVG Version: 6.00 Build 0)  -->
<!DOCTYPE svg PUBLIC "-//W3C//DTD SVG 1.1//EN" "http://www.w3.org/Graphics/SVG/1.1/DTD/svg11.dtd">
<svg version="1.1" id="Ebene_1" xmlns="http://www.w3.org/2000/svg" xmlns:xlink="http://www.w3.org/1999/xlink" x="0px" y="0px"
	 width="200px" height="200px" viewBox="0 0 200 200" enable-background="new 0 0 200 200" xml:space="preserve">
<g>
	<g>
		<path fill="#A1DB3B" d="M82.092,6.881c2.309,20.742,2.244,41.861,1.81,62.699c-0.409,19.645-0.906,40.372-6.138,59.449
			c-1.234,4.499-3.192,9.603-7.082,12.479c-5.972,4.415-11.982-0.481-15.186-5.58c-5.608-8.928-5.985-23.57,0.168-32.18
			c4.365-6.107,14.846-16.122,23.184-14.155c1.206,0.284,1.46,0.578,2.301,2.1c0.529,0.957,1.092,3.575,1.219,5.205
			c0.951,12.178-3.797,25.25-9.087,35.987c-3.987,8.093-11.768,21.862-21.379,22.564c-4.432,0.324-8.189-3.396-10.82-7.257
			c-4.614-6.77-6.398-13.907-6.034-22.043c0.712-15.883,9.871-36.665,26.519-41.176c9.133-2.475,14.75,3.015,21.564,8.088
			c7.209,5.367,16.405,5.332,22.785-1.229c2.586-2.659,4.285-6.148,6.134-9.319c2.453-4.206,5.665-7.306,10.048-9.451
			c8.871-4.34,20.724-1.987,29.92-0.178c5.641,1.109,8.084-7.36,2.393-8.679c-15.468-3.583-35.803-3.799-48.374,7.354
			c-6.728,5.97-7.859,15.188-6.278,23.566c1.714,9.086,8.284,16.439,15.097,22.228c12.454,10.58,33.297,20.287,31.434,39.657
			c-1.446,15.035-21.175,22.286-33.46,25.008c-11.335,2.51-25.799,3.225-36.016-3.249c-1.514,2.591-3.028,5.181-4.542,7.771
			c13.657,7.165,30.429,8.106,45.45,5.969c14.094-2.005,30.168-7.602,37.343-20.909c8.989-16.674-2.834-35.315-14.009-47.428
			c-7.785-8.438-16.776-15.863-23.181-25.489c-4.49-6.751-8.433-16.368-2.613-23.505c9.711-11.908,32.66-13.354,45.972-7.965
			c5.383,2.179,7.7-6.53,2.393-8.679c-14.778-5.982-35.001-3.583-48.362,4.865c-6.787,4.292-11.202,10.809-11.948,18.835
			c-0.928,9.987,5.545,19.864,11.417,27.288c11.905,15.051,34.506,28.452,34.422,49.933c-0.058,14.735-17.092,21.136-29.029,23.577
			c-13.794,2.821-30.609,2.401-43.311-4.263c-5.143-2.698-9.45,4.661-4.542,7.771c12.916,8.185,30.686,7.049,44.924,3.705
			c14.878-3.492,30.545-11.627,36.559-26.459c7.115-17.551-6.903-33.137-19.705-43c-7.353-5.665-15.661-10.782-21.238-18.372
			c-4.696-6.393-7.293-16.571-1.663-23.213c8.892-10.489,28.942-9.082,40.871-6.318c0.798-2.893,1.595-5.786,2.393-8.679
			c-10.945-2.153-22.501-3.807-33.356-0.335c-10.872,3.477-14.868,12.191-20.856,20.834c-3.375,4.872-8.343,3.463-12.524,0.585
			c-4.745-3.265-8.433-7.208-14.062-9.036c-8.03-2.607-17.517,0.056-24.322,4.503c-14.891,9.731-22.519,29.258-23.288,46.42
			c-0.615,13.707,6.12,30.653,19.525,36.259c10.958,4.581,21.591-5.167,27.637-13.15c8.16-10.774,13.65-23.958,16.585-37.103
			c1.958-8.765,4.259-23.243-3.894-29.829c-13.811-11.157-36.087,9.182-41.168,21.559c-6.084,14.821-0.816,45.854,19.301,47.203
			c20.39,1.366,23.48-24.068,25.811-38.775c2.799-17.664,3.092-35.81,3.246-53.655c0.151-17.568-0.01-35.323-1.955-52.803
			C90.458,1.18,81.451,1.118,82.092,6.881L82.092,6.881z"/>
	</g>
</g>
</svg>
