<?xml version="1.0" encoding="utf-8"?>
<!-- Generator: Adobe Illustrator 17.0.0, SVG Export Plug-In . SVG Version: 6.00 Build 0)  -->
<!DOCTYPE svg PUBLIC "-//W3C//DTD SVG 1.1//EN" "http://www.w3.org/Graphics/SVG/1.1/DTD/svg11.dtd">
<svg version="1.1" id="Ebene_1" xmlns="http://www.w3.org/2000/svg" xmlns:xlink="http://www.w3.org/1999/xlink" x="0px" y="0px"
	 width="960px" height="560px" viewBox="0 0 960 560" enable-background="new 0 0 960 560" xml:space="preserve">
<g>
	<g>
		<path d="M602.066,113.399c-9.159,10.969-19.909,20.366-30.604,29.788c-10.679,9.408-20.479,19.292-30.078,29.783
			c-18.749,20.491-39.77,38.9-62.659,54.634c-47.368,32.558-103.282,52.082-160.892,53.575
			c-41.886,1.086-108.23-7.511-107.299-62.76c0.477-28.295,22.75-52.251,44.894-67.096c23.057-15.458,50.645-22.812,78.069-25.027
			c28.013-2.262,55.151,1.43,81.36,11.629c27.16,10.569,50.205,27.191,71.054,47.3c9.468,9.132,18.96,18.487,29.989,25.755
			c7.857,5.177,16.362,9.4,25.063,12.95c16.175,6.598,39.173,12.446,52.306-2.851c10.659-12.417,11.721-31.243,11.88-46.8
			c0.201-19.577-2.068-39.111-2.246-58.669c-0.018-1.934-3.018-1.935-3,0c0.214,23.571,3.538,47.2,1.75,70.784
			c-0.82,10.814-3.072,22.022-9.353,31.069c-6.366,9.168-16.869,10.983-27.318,9.935c-21.572-2.165-43.255-14.416-59.562-28.159
			c-10.803-9.105-20.434-19.508-31.028-28.849c-10-8.817-21.091-16.384-32.67-22.964c-23.234-13.204-49.37-22.15-76.069-24.329
			c-26.105-2.131-53.425,1.013-78.245,9.352c-43.384,14.577-96.791,60.005-74.805,111.041c8.145,18.907,27.482,29.181,46.357,34.503
			c22.234,6.269,46.411,7.094,69.32,5.742c55.674-3.286,109.041-23.726,154.652-55.401c22.131-15.369,42.317-33.454,60.573-53.242
			c9.645-10.454,19.401-20.363,30.078-29.783c10.69-9.431,21.444-18.817,30.604-29.788
			C605.418,114.047,603.307,111.912,602.066,113.399L602.066,113.399z"/>
	</g>
</g>
<g>
	<g>
		<path d="M234.56,170.504c4.172-1.179,8.421-2.1,12.696-2.816c3.675-0.616,13.142-2.661,15.899,1.04
			c4.115,5.524-11.49,6.294-13.479,6.312c-4.827,0.042-13.582,0.124-17.328-3.594c-0.101,0.785-0.202,1.571-0.304,2.356
			c5.461-2.718,11.67-2.663,17.634-2.669c0-1,0-2,0-3c-5.571,0.544-11.094,0.496-16.667,0c0.133,0.982,0.266,1.964,0.399,2.946
			c2.121-0.895,4.238-0.55,6.352,1.035c1.156,1.518,3.763,0.026,2.59-1.514c-2.622-3.443-5.755-3.567-9.74-2.413
			c-1.702,0.493-1.24,2.801,0.399,2.946c5.573,0.496,11.096,0.544,16.667,0c1.888-0.184,1.969-3.002,0-3
			c-6.544,0.006-13.172,0.104-19.148,3.078c-0.873,0.434-0.956,1.709-0.304,2.356c4.868,4.832,15.308,4.611,21.576,4.434
			c5.623-0.158,14.175-0.974,14.683-8.03c0.844-11.725-27.465-3.845-32.723-2.359C231.903,168.136,232.694,171.031,234.56,170.504
			L234.56,170.504z"/>
	</g>
</g>
<g>
	<g>
		<path d="M219.793,249.293c25.623,2.52,47.026-15.099,71.663-18.444c-0.615-0.615-1.23-1.23-1.845-1.845
			c-4.12,19.21-28.63,28.515-44.929,34.585c-1.796,0.669-1.019,3.569,0.798,2.893c17.333-6.455,42.646-16.263,47.025-36.68
			c0.261-1.217-0.704-2-1.845-1.845c-24.352,3.307-45.566,20.825-70.866,18.337C217.868,246.104,217.886,249.106,219.793,249.293
			L219.793,249.293z"/>
	</g>
</g>
<g>
	<g>
		<path d="M233.675,248.854c3.016,2.659,6.252,5.326,10.355,5.864c4.565,0.598,6.069-4.894,6.52-8.25
			c-0.982-0.133-1.964-0.266-2.946-0.399c0.227,1.732,0.67,3.174,1.354,4.78c0.32,0.75,1.416,0.916,2.052,0.538
			c5.054-3,7.15-8.499,10.308-13.182c-0.785,0.101-1.571,0.202-2.356,0.304c4.421,5.476,9.215,2.004,13.041-2.299
			c1.281-1.44-0.833-3.57-2.121-2.121c-2.07,2.328-5.231,6.717-8.798,2.299c-0.646-0.799-1.865-0.424-2.356,0.304
			c-2.823,4.186-4.711,9.422-9.232,12.106c0.684,0.179,1.368,0.359,2.052,0.538c-0.315-1.089-0.63-2.177-0.945-3.266
			c-0.197-1.503-2.7-2.234-2.946-0.399c-0.395,2.939-0.974,6.789-4.817,5.789c-2.656-0.692-5.055-2.973-7.044-4.726
			C234.351,245.458,232.221,247.572,233.675,248.854L233.675,248.854z"/>
	</g>
</g>
</svg>
